<?xml version="1.0" standalone="no"?>
<!DOCTYPE svg PUBLIC "-//W3C//DTD SVG 20010904//EN"
 "http://www.w3.org/TR/2001/REC-SVG-20010904/DTD/svg10.dtd">
<svg version="1.0" xmlns="http://www.w3.org/2000/svg"
 width="671.000000pt" height="671.000000pt" viewBox="0 0 671.000000 671.000000"
 preserveAspectRatio="xMidYMid meet">
<metadata>
Created by potrace 1.11, written by Peter Selinger 2001-2013
</metadata>
<g transform="translate(0.000000,671.000000) scale(0.100000,-0.100000)"
fill="#000000" stroke="none">
<path d="M6398 6705 c-2 -2 -46 -6 -98 -9 -52 -4 -106 -8 -120 -11 -14 -2 -55
-7 -92 -10 -37 -3 -77 -8 -90 -10 -13 -2 -50 -6 -83 -10 -32 -4 -66 -8 -75
-10 -8 -1 -36 -5 -61 -9 -166 -24 -396 -69 -573 -112 -100 -24 -190 -46 -201
-49 -42 -10 -224 -67 -305 -96 -639 -226 -1011 -487 -1490 -1049 -266 -311
-475 -590 -730 -975 -62 -93 -114 -172 -116 -174 -2 -2 -38 6 -81 17 -43 11
-94 23 -113 26 -19 3 -46 8 -60 11 -32 6 -259 8 -285 2 -11 -3 -45 -8 -75 -12
-77 -10 -247 -67 -342 -115 -267 -134 -514 -368 -733 -695 -72 -108 -151 -256
-174 -325 -38 -119 -3 -218 91 -258 70 -29 227 6 372 83 142 75 273 141 306
153 19 7 72 16 117 19 126 9 206 -23 261 -103 l24 -36 -46 -101 c-24 -56 -61
-145 -81 -197 -20 -52 -45 -117 -56 -143 -14 -34 -19 -67 -18 -109 4 -93 43
-162 158 -278 l96 -96 -33 -55 c-18 -29 -35 -71 -38 -91 l-6 -37 -67 34 c-106
54 -200 77 -332 80 -251 6 -439 -80 -623 -285 -116 -130 -255 -345 -353 -550
-52 -108 -127 -291 -139 -340 -2 -8 -15 -53 -29 -100 -14 -47 -27 -94 -29
-105 -2 -11 -13 -63 -24 -115 -12 -52 -24 -122 -27 -155 -4 -33 -9 -68 -11
-78 -6 -36 28 -121 65 -158 41 -41 117 -69 172 -63 482 55 999 265 1371 557
205 160 311 322 346 529 15 92 5 252 -22 340 -25 83 -74 187 -103 220 -14 15
-11 18 24 27 21 6 60 24 87 41 l48 31 98 -95 c117 -112 199 -158 282 -159 58
0 185 44 424 148 77 34 134 53 146 50 29 -10 78 -65 101 -115 29 -64 31 -168
5 -256 -11 -38 -24 -73 -28 -79 -4 -5 -42 -77 -83 -160 -133 -266 -158 -373
-112 -470 30 -63 68 -86 139 -87 123 -1 287 83 565 290 116 86 149 114 251
212 289 280 444 611 444 950 0 117 -14 226 -39 315 -14 48 -24 91 -23 96 2 4
77 57 168 116 183 121 395 269 540 377 88 66 449 352 460 365 3 3 41 37 85 76
113 98 320 305 405 404 196 229 335 462 468 783 77 187 181 509 222 693 11 50
23 99 25 110 3 11 10 45 16 75 5 30 12 64 14 75 8 40 15 81 25 145 6 36 13 76
15 89 2 13 7 45 11 70 4 25 8 55 10 66 2 11 7 45 10 75 3 30 7 66 9 79 3 14 7
54 10 90 3 36 8 81 10 98 20 141 25 363 10 407 -15 44 -59 93 -95 108 -21 9
-185 19 -192 13z"/>
</g>
</svg>
