<svg xmlns="http://www.w3.org/2000/svg" viewBox="0 0 776 298.4"><defs><style>.cls-1{fill:#727272;}.cls-2{fill:#d33939;}.cls-3{opacity:0.05;}.cls-4{fill:#86dcea;}.cls-5{fill:none;stroke:#000;stroke-miterlimit:10;stroke-width:2px;opacity:0.2;}.cls-6{fill:#e09448;}.cls-7{fill:#555;}.cls-8{fill:#e2a347;}.cls-9{fill:#ffd364;}.cls-10{fill:#ffe09c;}.cls-11{fill:#d3f1f4;}.cls-12{fill:#fff;opacity:0.6;}.cls-13{opacity:0.1;}</style></defs><title>Asset 9</title><g id="Layer_2" data-name="Layer 2"><g id="Layer_2-2" data-name="Layer 2"><path class="cls-1" d="M313.79,170.74A156,156,0,0,0,306,191.46c-4.13,5.68,4.53,12.11,12.88,19.72l1.55,1.42,3.37,3.17,1.52,1.45c8.12,7.85,15.1,16.08,20.5,11.59a154.08,154.08,0,0,0,20.32-9.13h0"/><polygon class="cls-2" points="414.68 190.6 364.38 220.61 312.59 173.51 341.68 117.51 418.4 187.82 414.68 190.6"/><path class="cls-2" d="M339.88,120.55c17-28.92,37.93-59,57.58-77.9C436.78,4.81,519.44,0,519.44,0a3.88,3.88,0,0,1,2.41.61,1.44,1.44,0,0,1,.26.2l.1.09.09.08a1.72,1.72,0,0,1,.22.26,3.86,3.86,0,0,1,.76,2.36s.49,82.8-34.75,124.46c-17.62,20.83-46.33,43.67-74.11,62.47"/><path class="cls-3" d="M494.44,120.23s-82.18,78.59-171.21,46.93L312,172.94l52,48.74S475.49,156.43,494.44,120.23Z"/><path class="cls-3" d="M498,114S412.93,210,321.57,181.67l42.39,40S470.8,164.59,498,114Z"/><path class="cls-2" d="M339.89,120.54s-36.87-18.77-68,26.85,11.35,15.82,15.52,14.55c9-4.21,23.25-3.13,26.37,8.81S356.56,126.77,339.89,120.54Z"/><path class="cls-2" d="M414.33,190.37s21.09,35.59-22.45,69.56-16.51-10.32-15.52-14.56c3.63-9.28,1.64-23.4-10.47-25.75S407.05,174.13,414.33,190.37Z"/><circle class="cls-4" cx="438.29" cy="89.7" r="24.98"/><path class="cls-2" d="M377.56,155.79a4,4,0,0,0-.67-.63s-5.4-5.07-15.91,6.14-44.62,51.62-46.56,56.39c-1.34,3.32-.46,4.26.2,4.53.31.64,1.3,1.46,4.53-.1,4.63-2.24,42.79-38.86,53.3-50.06S377.56,155.79,377.56,155.79Z"/><path class="cls-5" d="M377.56,155.79a4,4,0,0,0-.67-.63s-5.4-5.07-15.91,6.14-44.62,51.62-46.56,56.39c-1.34,3.32-.46,4.26.2,4.53.31.64,1.3,1.46,4.53-.1,4.63-2.24,42.79-38.86,53.3-50.06S377.56,155.79,377.56,155.79Z"/><path class="cls-6" d="M312.58,267.79a29.1,29.1,0,0,0-.83-40.66h0l-.26-.23-.25-.25h0a29.1,29.1,0,0,0-40.63,1.78s-.36.38-1,1.12c-4.44,5.14-22.34,27.83-25.47,63,0,.1,0,.21,0,.31h0a5.55,5.55,0,0,0,1.25,4l0,0a2.75,2.75,0,0,0,.26.22l.24.25,0,0a5.53,5.53,0,0,0,4.05,1h0l.31-.05c34.94-5.38,56.44-24.68,61.29-29.44C312.22,268.17,312.58,267.79,312.58,267.79Z"/><path class="cls-7" d="M458.88,68.42a29.14,29.14,0,1,0,1.32,41.19A29.12,29.12,0,0,0,458.88,68.42Zm-35.45,37.79a22.67,22.67,0,1,1,32.05-1A22.66,22.66,0,0,1,423.43,106.21Z"/><path class="cls-8" d="M312.15,260.88a24.71,24.71,0,0,0-.7-34.52h0l-.22-.19L311,226h0a24.71,24.71,0,0,0-34.49,1.51s-.31.32-.85.95c-3.77,4.36-19,23.62-21.62,53.52,0,.08,0,.17,0,.26h0a4.69,4.69,0,0,0,1.06,3.37l0,0,.23.19.2.22,0,0a4.72,4.72,0,0,0,3.43.84h0l.27,0c29.66-4.56,47.91-20.95,52-25C311.85,261.21,312.15,260.88,312.15,260.88Z"/><path class="cls-9" d="M311.89,250.88a17.6,17.6,0,0,0-.5-24.58h0l-.16-.14-.15-.15h0a17.58,17.58,0,0,0-24.55,1.07s-.22.23-.6.68a69.38,69.38,0,0,0-15.39,38.09c0,.06,0,.13,0,.19h0a3.36,3.36,0,0,0,.76,2.4l0,0,.16.14.14.15,0,0a3.38,3.38,0,0,0,2.45.6h0l.19,0a69.5,69.5,0,0,0,37-17.79C311.67,251.11,311.89,250.88,311.89,250.88Z"/><path class="cls-10" d="M310.65,240.7a9.62,9.62,0,0,0-.27-13.45h0l-.09-.07-.08-.09h0a9.63,9.63,0,0,0-13.45.59s-.12.12-.33.37A38.08,38.08,0,0,0,288,248.91a.34.34,0,0,1,0,.1h0a1.83,1.83,0,0,0,.41,1.32h0l.09.07.08.09h0a1.82,1.82,0,0,0,1.33.32H290a38.11,38.11,0,0,0,20.28-9.74Z"/><ellipse class="cls-11" cx="439.75" cy="73.94" rx="3.24" ry="6.01" transform="translate(323.84 504.53) rotate(-84.48)"/><ellipse class="cls-12" cx="404.93" cy="193.4" rx="5.98" ry="2.44" transform="translate(-43.69 182.9) rotate(-24.19)"/><ellipse class="cls-12" cx="328.72" cy="123.18" rx="2.44" ry="5.98" transform="translate(174.48 438.52) rotate(-84.48)"/><ellipse class="cls-12" cx="439.3" cy="81.02" rx="0.88" ry="2.15" transform="matrix(0.1, -1, 1, 0.1, 316.39, 510.49)"/><ellipse class="cls-12" cx="371.79" cy="159.53" rx="3.81" ry="2.37" transform="translate(-32.72 166.35) rotate(-24.19)"/><ellipse class="cls-12" cx="475.02" cy="16.75" rx="14.11" ry="3.41" transform="translate(9.05 110.54) rotate(-13.4)"/><ellipse class="cls-12" cx="454.19" cy="21.8" rx="2.94" ry="1.61" transform="translate(7.31 105.85) rotate(-13.4)"/><path class="cls-3" d="M377.52,202s33.59,13.69-8.2,71.26c0,0-5.9-4.87.1-12.71s18.2-26,1.25-39.16l-8.61-2.91S376,201.18,377.52,202Z"/><path class="cls-3" d="M331.23,158.6S315.41,126,260.64,171.35c0,0,5.23,5.57,12.67-.92s24.79-19.83,39-3.75l3.46,8.41S332.17,160.09,331.23,158.6Z"/><path class="cls-13" d="M414.67,100.62s34.16,16.82,50.2-15.64C464.87,85,456.09,137.39,414.67,100.62Z"/><polygon points="165 33.54 0 137.84 0 164.18 165 267.43 165 240.04 22 150.49 165 60.93 165 33.54"/><polygon points="611 35.65 776 139.95 776 166.29 611 269.54 611 242.15 754 152.59 611 63.04 611 35.65"/></g></g></svg>