<svg xmlns="http://www.w3.org/2000/svg" viewBox="0 0 1778 762.06"><defs><style>.cls-1{fill:#fff;}</style></defs><title>whtsr logo_1</title><g id="Layer_2" data-name="Layer 2"><g id="Layer_1-2" data-name="Layer 1"><path class="cls-1" d="M1178.74,8.3a10.49,10.49,0,0,0-2-5.66l-.56-.59c-.11,0-.11-.12-.22-.12l-.23-.23a4.46,4.46,0,0,0-.67-.47,9.13,9.13,0,0,0-5.61-1.18S978.84,22.69,892.82,119.73C851.27,166.54,808.26,238.83,773.33,309h-.11l-.34.83c-1.12,2.24-2.36,4.48-3.37,6.72-.11,0-87.7-40.68-153.85,74.17-20.55,35.73-25.6,52.83-22.57,59.31a1.6,1.6,0,0,1-.45.36s.56.47,1.46,1.18a7.54,7.54,0,0,0,2.24,1.41c4.83,2.59,14.38,5,25.5-6.48,1.79-1.77,3.81-3.78,6.06-5.9,11.79-7.43,22.69-15.45,25.49-16.63,12.13-6.72,28.64-9.08,41.89-4a56.1,56.1,0,0,1,12.8,9,33.5,33.5,0,0,1,7.42,13c-.45,1.41-.9,2.71-1.35,4l-2.47,1.53,1.46,1.3c-6.18,17.8-10.67,33-12.92,44.45-8.87,14.39,12,28.77,32.23,46.22-5.27,8-8.76,14-9.54,16.39-2.7,8.14-.56,10.38,1,11,.78,1.41,3.26,3.3,10.44-.83,2.14-1.29,7.08-5.89,13.82-12.73,15.49,14.15,29.53,28.89,40.54,28.89a11.52,11.52,0,0,0,8.31-3.54c10.33-4.36,23.92-11.56,39.41-21l1.46,1.3s2.36-1.42,6.52-4.13l8.76,2.48a2.27,2.27,0,0,0,.56.35,62.22,62.22,0,0,1,10.78,10.14c8.76,13.09,9.77,32.31,5.05,47-.56,3.89-8.87,21.58-14,37.85-4,6.13-5.5,11.44-5.5,15.8a20.6,20.6,0,0,0,1.46,7.31c.34,2.6,1.35,4.6,3.15,5.54a20.79,20.79,0,0,0,2.24,2.25,17.49,17.49,0,0,1,.9-1.54c7.52-.12,22.46-9.19,49.53-34,89.39-81.83,50.19-159.54,43.91-170.5,43.12-33.84,90.73-75.12,128.13-117.68,22-23.59,39.3-45.87,47.39-64.62C1189,186,1178.74,8.3,1178.74,8.3Zm-141.39,261c-20.55,25.71-57,29-81.42,7.43s-27.62-59.78-7.07-85.49,57-29,81.41-7.42S1057.9,243.71,1037.35,269.29Z"/><path class="cls-1" d="M717.13,578.89l0,0-.16-.13h0l-.38-.31-.37-.34h0l-.15-.14,0,0a55.27,55.27,0,0,0-32-12.92A65.43,65.43,0,0,0,623,589.33s-.78,1-2.16,2.85c-9.62,13.06-48.12,70.52-50.91,156.42,0,.25,0,.51,0,.76h0a13.83,13.83,0,0,0,3.39,9.47l-.07.09c.21.18.43.34.64.5s.38.4.59.58l.06-.08A12.36,12.36,0,0,0,584,761.8h0l.72-.16c80.1-17.69,127.37-67.41,138-79.61,1.53-1.75,2.29-2.73,2.29-2.73,20.85-26,20.67-63.19,1.49-89A58.71,58.71,0,0,0,717.13,578.89Z"/><polygon class="cls-1" points="0 413.75 374.32 647.19 374.32 585.26 49.91 382.79 374.32 180.32 374.32 118.38 0 354.2 0 413.75"/><polygon class="cls-1" points="1403.68 123.25 1403.68 185.18 1728.09 387.65 1403.68 590.12 1403.68 652.05 1778 418.62 1778 359.07 1403.68 123.25"/></g></g></svg>