<svg xmlns="http://www.w3.org/2000/svg" viewBox="0 0 514 514"><defs><style>.cls-1{fill:#fff;}.cls-2{fill:#e5c253;}.cls-13,.cls-3{opacity:0.2;}.cls-4{fill:#dd2c2c;}.cls-5{opacity:0.45;}.cls-6{opacity:0.15;}.cls-7{fill:#eadeb9;}.cls-11,.cls-12,.cls-8{fill:none;}.cls-11,.cls-8{stroke:#000;stroke-miterlimit:10;}.cls-11,.cls-9{opacity:0.05;}.cls-10{opacity:0.1;}.cls-13{fill:#f9b4d7;}.cls-14{opacity:0.3;}.cls-15{opacity:0.4;}.cls-16{opacity:0.35;}</style></defs><title>russ 2</title><g id="Layer_2" data-name="Layer 2"><g id="Layer_1-2" data-name="Layer 1"><path d="M306,233s-30,47-26,56,10,21,14,22,17-30,21-39S322,233,306,233Z"/><path class="cls-1" d="M514,257A256.89,256.89,0,0,1,382.13,481.54c-3.58,2-7.23,3.92-10.92,5.75a255.26,255.26,0,0,1-97.6,26.18q-8.24.53-16.61.53-9,0-17.75-.61a255.36,255.36,0,0,1-114.47-36q-5.81-3.49-11.42-7.29A257.36,257.36,0,0,1,0,257C0,115.06,115.06,0,257,0S514,115.06,514,257Z"/><polygon points="307.73 245 298 245 294 302 306 302 310 243.63 307.73 245"/><path class="cls-2" d="M199.5,342.5c4.65.48,17.71,41.43,28,44,11.8,2.95,55.33-18.6,58.17-25.8,0,0-5.17,29.27-18.67,38,0,0-32.32,23.28-34.91,29.52s-5.59,11.25-5.59,15.25c0,0-.54-11.88-3.77-14.94s-9.75-9.81-11.49-27.44-8.74-36.62-8.74-36.62S198.5,352.5,199.5,342.5Z"/><g class="cls-3"><path d="M226.5,445.5a2.17,2.17,0,0,0,0-.26C226.47,445.71,226.5,445.84,226.5,445.5Z"/><path d="M296.5,323.5c-1,3-8,27-14,33s-12,19-14,31-19,22-19,22S233.34,421,227.55,428.92l-.05-.42-16-33c-2,7,3,22,3,24s8,11,11,14c0,6.7.91,9.73,1,11.74.1-2.36,1.36-13.59,13-22.74,14-11,37-27,39-36s11.21-37.82,15.11-42.41S308.5,315.5,308.5,311.5C308.5,311.5,297.5,320.5,296.5,323.5Z"/></g><path class="cls-4" d="M457,345c-11-12-60-36-60-36,11-8,7-28,0-47s-78-21-78-21l-23,68c-64-9-154,11-173,21s-26,42-26,42L82.78,445.93a256.26,256.26,0,0,0,30.58,24.21q5.61,3.8,11.42,7.29a255.36,255.36,0,0,0,114.47,36l34.36.08a255.26,255.26,0,0,0,97.6-26.18l10.92-5.75A258.18,258.18,0,0,0,483.56,378.42C474.38,363.81,463.17,351.73,457,345ZM267,398.73S234.68,422,232.09,428.25s-5.59,11.25-5.59,15.25c0,0-.54-11.88-3.77-14.94s-9.75-9.81-11.49-27.44-8.74-36.62-8.74-36.62-4-12-3-22c0,0,16,42,28,44s55.25-18.56,58.16-25.78C285.51,361.61,280.29,390.11,267,398.73Z"/><path class="cls-5" d="M396.5,307.5s-14,15-21,24-32,29-34,32a12.32,12.32,0,0,0-2,7c0,1,6,2,9-4s4-8,7-11,40-29,45-32,10.29-7.67,8.65-8.34-11.65-5.66-11.65-5.66Z"/><path class="cls-3" d="M194,329s-3,30,5,45,1-3,1-3-3.67-29,1.17-28.5S198,326,194,329Z"/><path class="cls-6" d="M172.42,321.12s-8.64,25.56,1.58,41.62l.5.76s1,21,4,28a136.3,136.3,0,0,1-8-25c-3-13.87-10.41-22.34-6.88-48a4.58,4.58,0,0,0-.12-1s9.75-2.43,10.87-1.71S172.42,321.12,172.42,321.12Z"/><path class="cls-7" d="M176,92s-25,29-29,63a92.55,92.55,0,0,0-7,20c-2,10,9,21,5,29s-9,21,2,43,23,65,23,65-2,12,15,18,12,4,12,4,5.17,8,5,13,13.63,27.46,15,33c4.27,17.27,56-4,67-15,0,0,24-50,24-61,0,0-14,5-13-15s6-42,6-42,13-4,14-13-1-25-6-28-50-106-50-106S231,53,176,92Z"/><path d="M240.5,191.25s0,1.25,4,.25,38-11,38-11l-2,6-32,8s-5,2-8,0Z"/><path class="cls-8" d="M126,178s-1-5,7-4,26.5,4.5,30.5,5.5,6,4,6,5a5.09,5.09,0,0,0,.11,1.34.84.84,0,0,0,.89.66c1,0,5-1,15,1a5.28,5.28,0,0,1,4-5c4-1,18-3,37,0,11,2,14,6,14,10v13s0,5-6,6-26,2-36-2-13-21-13-21-5-2-15-1c0,0-1,0-1,2l-2,14s-12,4-24,0-13-6-13-6S127.5,195.5,126,178Z"/><path d="M125.5,183.5h-2a1,1,0,0,1-1-1v-2a1,1,0,0,1,1-1h3l13.27-1.23s.26,2.57.49,3.4C140.26,181.67,126.5,183.5,125.5,183.5Z"/><path class="cls-9" d="M176.5,239.5s-11-1-3-2,8,0,11,1a45,45,0,0,0,8,2c1,0-7,1-9,0a14.86,14.86,0,0,0-6-1Z"/><path class="cls-10" d="M154.5,231.5s16-34,16-35-3-1-3-1S152.5,228.5,154.5,231.5Z"/><path class="cls-7" d="M170.5,188.5s-16,41-16,43,3,7,8,8,16-48,16-48Z"/><path class="cls-11" d="M199.5,226.5s2,11-3,13"/><path class="cls-11" d="M202.5,226.5s9,12,13,17a63.81,63.81,0,0,0,14,12"/><path class="cls-10" d="M154.5,233.5a9.72,9.72,0,0,0-.19,1.15,9.14,9.14,0,0,0,1.19,5.85c2,3,3,5,8,6s7,0,7-1-1-2-2-3-5.22-1-7.61-3.48S154.5,230.5,154.5,233.5Z"/><path class="cls-12" d="M185.43,283.4a24.73,24.73,0,0,1-5.93,1.1,6.87,6.87,0,0,1-4.62-2.5,10.5,10.5,0,0,0,4.12,1h4A16.86,16.86,0,0,1,185.43,283.4Z"/><path class="cls-12" d="M200.48,277.4l-1.33.52L200,277A4.37,4.37,0,0,0,200.48,277.4Z"/><path class="cls-12" d="M172.19,276a1.3,1.3,0,0,0-.1-.15C172.73,276,172.43,276,172.19,276Z"/><path class="cls-12" d="M196.86,278.87c-.5.22-1,.43-1.36.63s-1.09.53-1.65.78L193,280c-2-1-7,0-7,0-3-1-4,0-4,0,0-1-2-1-2-1-3-1-4,0-4,0,0-.77-2.37-1.54-3.46-1.85,0-.22,0-.43,0-.65l-.06-.11A6.19,6.19,0,0,0,176,278c2,0,5,1,5,0a10.34,10.34,0,0,0,4,1c2,0,6,0,6-2a3.7,3.7,0,0,0,3,2C194.84,279,195.91,279,196.86,278.87Z"/><path class="cls-13" d="M167.7,267s-1.2-3.49,1.8-4.49,4,0,6,1,4,1,5,0,13.53-5.32,41.26,2.84a2.47,2.47,0,0,0-1.26-.84c-3-1-31-9-34-7s-22-1-22-1-5,5,1,8a8.74,8.74,0,0,1,2.2,1.52Z"/><path class="cls-1" d="M215,271a4.07,4.07,0,0,1-1,1.59c-2,.71-4.17,1.47-6.37,2.24h0l-.07,0c-2.44.86-4.88,1.72-7,2.54a4.37,4.37,0,0,1-.48-.4l-.85.92c-.83.32-1.6.64-2.29.95-1,.1-2,.13-2.86.13a3.7,3.7,0,0,1-3-2c0,2-4,2-6,2a10.34,10.34,0,0,1-4-1c0,1-3,0-5,0a6.19,6.19,0,0,1-3.56-1.61c-.05-.09-.14-.23-.25-.39.24,0,.54-.05-.1-.15a3.87,3.87,0,0,0-2.86-1.86L168,267c-.5-1.5,1.5-1.5,2.5-1.5s3,2,3,2c0-1,1-3,3-2s4,5,4,5c1-4,4-5,7-5s5,6,5,6c1-2,4-4,6-3s3,5,3,5c1-4,3-5,5-6s3,2,3,2-1,3,0,1S214,267,214,267C216,266,216,268,215,271Z"/><path class="cls-1" d="M172.44,276.39,172,276h.19C172.3,276.16,172.39,276.3,172.44,276.39Z"/><path class="cls-1" d="M207.59,274.83l-.12.13c-.09,0,0-.07,0-.1l.07,0Z"/><path class="cls-1" d="M172.09,275.85a10.42,10.42,0,0,1-2.86-1.86A3.87,3.87,0,0,1,172.09,275.85Z"/><path class="cls-1" d="M193.85,280.28a59.72,59.72,0,0,1-8.42,3.12A16.86,16.86,0,0,0,183,283h-4a10.5,10.5,0,0,1-4.12-1,8.78,8.78,0,0,1-2.34-4.85c1.09.31,3.46,1.08,3.46,1.85,0,0,1-1,4,0,0,0,2,0,2,1,0,0,1-1,4,0,0,0,5-1,7,0Z"/><path class="cls-13" d="M214,272.59h0l-6.36,2.24-.12.13h0c-2.37,2.71-4.49,3-5.47,3,1,0,3.1-.33,5.47-3-.09,0,0-.07,0-.1-2.44.86-4.88,1.72-7,2.54h0l-1.33.52a.28.28,0,0,1,0,.18.36.36,0,0,0,0-.18c-.83.32-1.59.64-2.28.94h0c-.5.22-1,.43-1.36.63s-1.09.53-1.64.78h0a59.72,59.72,0,0,1-8.42,3.12c1.13.24,2.25.52,2.51.59-.26-.07-1.38-.34-2.51-.59a24.73,24.73,0,0,1-5.93,1.1,6.87,6.87,0,0,1-4.62-2.5,13.57,13.57,0,0,1-1.85-1,13.57,13.57,0,0,0,1.85,1,8.78,8.78,0,0,1-2.34-4.85l-.14,0,.14,0c0-.22,0-.43,0-.65l-.06-.11L172,276h.19a1.3,1.3,0,0,0-.1-.15,10.42,10.42,0,0,1-2.86-1.86,2.59,2.59,0,0,0-.48,0h0a27.45,27.45,0,0,1-2.24,4.47s-3,10,4,13,16,1,21-1,28-19,29-20a5.89,5.89,0,0,0,.79-1A43.57,43.57,0,0,1,214,272.59ZM207.48,275a2.16,2.16,0,0,0,.52,0A2.1,2.1,0,0,1,207.48,275Z"/><path class="cls-14" d="M196.5,334.5s12,2,16,1,7,0,0,6,7,14,13,14-6,5-4,6-3.35,19-7.68,12-9.75-19.17-10.54-21.09S199.5,337.5,196.5,334.5Z"/><path class="cls-15" d="M306.5,267.5s58-19,47,11-43,53-43,53,41.35-53.44-8.82-51.22C301.68,280.28,301.5,271.5,306.5,267.5Z"/><path class="cls-16" d="M380.5,279.5s-31,72-74,94,6-11,6-11,51-43,61-81C373.5,281.5,371.5,260.5,380.5,279.5Z"/><path class="cls-6" d="M279.5,404.5s-28,14-37,34c0,0-2-6,2-13S267.5,405.5,279.5,404.5Z"/><path class="cls-6" d="M202.5,412.5s9,18,13,22,14,24,14,28-16-23-25-31S196.5,400.5,202.5,412.5Z"/><path class="cls-3" d="M371.21,487.29,371,487c-7-10-19-70-12-51,6.05,16.42,19.57,39.56,23.13,45.54Z"/><path class="cls-3" d="M112,438c-.39,1.58-.71,3.13-.95,4.65A15,15,0,0,1,112,438Z"/><path d="M292.38,309.33a15.81,15.81,0,0,1-.12-1.69A16.9,16.9,0,0,0,292.38,309.33Z"/><path d="M356,243.81c.32-4.78,2.77-32.2,0-37.81-3-6-9-34-8-54s-5-24-19-50-65-34-65-34c-12-9-51-24-96,12-38,41-20.52,71.58-20.52,71.58C155,99.15,206,92,217,95s13,9,25,20,15,21,18,30,6.94,39.46,25.52,55.57c1.62,7,5.4,19.9,13,30.93,0,0-8-18.69-6-24.84C304.73,217.82,303.87,221.5,303,238c-.35,6.72.8,9.56,2.92,10.6-3.52,6.21-8.66,28.43-7.83,39.62a74.73,74.73,0,0,0-3.84,8.74,13.89,13.89,0,0,1,4.38-5.32,4.63,4.63,0,0,0,1.7,2.78c3.46,2.14,9.07-2,13.71-6.59a46,46,0,0,1-5,14.53c-16.87,22.51-23.21,29.74-21.5,39.14,2,11,4,15,4,15s-9.33-26,16.34-49c13.41-12,20.08-20.76,23.4-27.23-.85,2.56,8.33-3.25,13.83-10.7a30.86,30.86,0,0,0,.43,6.93s14-14,14-21C359.5,250.53,358,250.09,356,243.81Z"/><path d="M292.25,307.57a30.38,30.38,0,0,1,2-10.61A23.66,23.66,0,0,0,292.25,307.57Z"/><path d="M297.83,301.65c3.17,5.35,6.86,6.17,10,3.76s11.25-18.61,9.7-22S294.66,296.3,297.83,301.65Z"/><path class="cls-3" d="M355,245s7,4,8,7-6,20-10,22-7,6-9,5l-6,6c-2,2-7,3-7,1,0,0-13,22-18,24s-7.5,4.65-7.25,3.83S310,304,309,301,355,245,355,245Z"/><path class="cls-6" d="M303,341s-14,19-15,24,9,0,10-3,5-19,6-20S303,341,303,341Z"/><path class="cls-10" d="M186,330c.07,2,21,2.92,31-2.51,3.51-1.91,26-19.11,30.41-22.25,19.87-14.28,45.43-34.92,55.24-55.68,0,0,4.32,8.44,2.32,12.44s-52,72-72,76S190,332,186,330Z"/><path class="cls-6" d="M272.74,372.7S287,310,299.5,304s7,11.31,6.23,11.66S285.77,363,284.88,365,272.74,372.7,272.74,372.7Z"/></g></g></svg>