<svg xmlns="http://www.w3.org/2000/svg" viewBox="0 0 190.33 338"><title>Asset 1</title><g id="Layer_2" data-name="Layer 2"><g id="Layer_2-2" data-name="Layer 2"><path d="M155.31,235.49a536,536,0,0,0,11.44-70.32c1.74-19.66,2.23-39.56-2.9-58.77C155.18,74,136.06,44.68,115.31,18.76c-3.36-4.18-6.8-8.3-10.36-12.31-2.38-2.68-4.28-5.07-7.88-6.24L100.74,5h0c0-2.91-2.3-4.73-5-5a4.18,4.18,0,0,0-1,0c-2.69.27-5,2.07-5,5h0L93.41.21C87,2.29,82,10.37,78,15.29A346.46,346.46,0,0,0,51.64,51.74C42.23,66.82,34,82.87,28.57,99.83c-6,18.6-6.7,37.52-5.49,56.89,1.67,26.5,6.27,52.83,12.08,78.71l3.49-6.15C19,235.1,5.05,254.73,1.39,274.15a94.7,94.7,0,0,0-.21,31.11C2.46,314.15,3.6,325,8.52,332.78c2.61,4.15,7.32,6.49,11.83,3.67,4.13-2.58,6.17-8,7.87-12.28,2-5,3.43-10.09,5-15.17.14-.44,1-2.62.24-.8a24.59,24.59,0,0,1,4.62-7.39c4.51-4.8,9.9-6.53,15.91-3.52l-2.3-3c2,5.6,4.12,11.16,6.52,16.61,1.5,3.39,2.84,8.26,5.48,10.94,6.36,6.47,18.69,4.35,26.76,4.2l-5-5c.44,4.15.53,8.77,2.65,12.5a9,9,0,0,0,3.39,3.59,8.4,8.4,0,0,0,2.81.83c.69.11,3.17-.13.92-.13s.47.2.92.13a8.5,8.5,0,0,0,2.52-.69,9,9,0,0,0,3.69-3.73c2.13-3.69,2.21-8.38,2.64-12.5l-5,5c8.09.15,20.39,2.28,26.76-4.2,2.52-2.56,3.75-7.06,5.2-10.29,2.55-5.7,4.76-11.54,6.85-17.41l-2.29,3c5.28-2.88,10.49-1.22,14.69,2.71a21.94,21.94,0,0,1,4.34,5.74c.46.85.86,1.73,1.24,2.61-.73-1.71-.14-.3,0,.08,1.37,4,2.46,8,3.84,12,2.27,6.54,7.92,22.46,17.74,16.14,5.43-3.5,7-12.14,8.32-17.88,2.51-11.17,4.21-22.83,3.46-34.3-1-15.24-6.27-30.05-17-41.16a53.45,53.45,0,0,0-21.32-13.75c-6.14-2-8.77,7.67-2.66,9.65.54.17,2.81,1.08,1.49.52a44.54,44.54,0,0,1,4.64,2.31,47.79,47.79,0,0,1,11.85,9.48c12.13,13.32,14.54,32.14,12.54,49.43a138.66,138.66,0,0,1-3.26,17.83c-.41,1.62-3.63,8.95-3.47,9.43.21.64-.65-.11.34-.08.43,0,1.28,0,1.71,0-.73.07.49-.36,0-.05.49-.29.29.71-.18-.33a14.7,14.7,0,0,1-1.22-2,34.35,34.35,0,0,1-1.61-3.35c-4.71-11.17-5.62-23.13-15.84-31.23-4.69-3.72-10.47-5.92-16.5-5.22-2.9.34-7.07,1.35-9.15,3.57-2.46,2.62-3.24,7.66-4.53,11s-2.59,6.36-4.09,9.44c-.73,1.5-1.41,4.4-2.57,5.41-1.76,1.52-6,1.12-8.13,1.15-3.71,0-7.43-.13-11.14-.2-2.91-.06-4.72,2.35-5,5-.19,1.85-.74,3.91-.74,5.76a5.63,5.63,0,0,1-.54,1.7c3.28-.2,3.79-.4,1.51-.58-2.28.18-1.77.38,1.51.58a5.63,5.63,0,0,1-.54-1.7,56.71,56.71,0,0,0-.74-5.76c-.28-2.65-2.07-5.06-5-5-5.53.1-12.2,1.22-17.59-.36-2.3-.68-1.95-1.06-2.82-3.19-1.26-3.06-3-6-4.22-9-2.13-5.1-3-12.83-8.2-15.61a20.06,20.06,0,0,0-16.88-.78C26,292.93,23.94,307.3,19.06,320.23A35.89,35.89,0,0,1,16.42,326c-.54.93-1.14,1.65-1.23,1.81-.34.54.29.21-.19.19a9.08,9.08,0,0,0,1.7-.21c1.14-.14,1,1.11.14-.59A34.48,34.48,0,0,1,15.12,323a116.44,116.44,0,0,1-4.06-18.84C8.42,286.43,10,266.64,22.13,252.44a48.2,48.2,0,0,1,13.13-10.78c.93-.52,1.88-1,2.83-1.46.34-.17.69-.32,1-.48.92-.41-1,.38.27-.11.63-.24,1.26-.49,1.91-.68a5.12,5.12,0,0,0,3.49-6.15c-4.94-22-9-44.3-11-66.78-1.68-18.52-2.52-37.46,2.13-55.62C43.85,79.52,62,51.27,81.66,26.57c3.26-4.09,6.61-8.12,10.06-12,1-1.15,2.85-4.18,4.35-4.67A5.13,5.13,0,0,0,99.74,5h0l-5,5a4.18,4.18,0,0,1,1,0l-5-5h0a5.13,5.13,0,0,0,3.67,4.82c1.22.4,2.65,2.74,3.47,3.67q4.29,4.83,8.36,9.85A323.74,323.74,0,0,1,130.9,57.91c8.91,14.41,16.74,29.67,21.78,45.89,5.56,17.91,5.88,36,4.61,54.6-1.72,25.08-6.12,49.94-11.62,74.44C144.26,239.1,153.9,241.78,155.31,235.49Z"/><path d="M94.74,96.53a36,36,0,1,0,36,36A36,36,0,0,0,94.74,96.53Zm0,64a28,28,0,1,1,28-28A28,28,0,0,1,94.74,160.53Z"/></g></g></svg>