<svg xmlns="http://www.w3.org/2000/svg" viewBox="0 0 1078.93 1078.94"><defs><style>.cls-1{fill:#fff;}.cls-2{fill:#edda8e;}.cls-3,.cls-6{opacity:0.25;}.cls-4{fill:#406791;}.cls-5{fill:#d13d3d;}.cls-6{fill:#020200;}.cls-10,.cls-7{opacity:0.11;}.cls-8{opacity:0.1;}.cls-9{opacity:0.2;}.cls-10{fill:none;stroke:#000;stroke-miterlimit:10;stroke-width:0.75px;}.cls-11{opacity:0.15;}</style></defs><title>izhar 2</title><g id="Layer_2" data-name="Layer 2"><g id="Layer_1-2" data-name="Layer 1"><path class="cls-1" d="M1078.93,539.47A537,537,0,0,1,969.65,865c-98.49,130-254.53,213.91-430.18,213.91-171.41,0-324.16-80-423-204.59A537.11,537.11,0,0,1,0,539.47C0,241.53,241.53,0,539.47,0S1078.93,241.53,1078.93,539.47Z"/><path class="cls-2" d="M395.6,732s32.76-14.48,32.51-42.42S455.54,537.9,455.54,537.9L572.63,387l120.14-39.37s36.83-5.84,57.15,32.26c9.14,14,10.41,38.1,25.14,53.08A42.29,42.29,0,0,1,787,466.53s-2.54,17.27-7.62,26.67-7.62,31.75-6.86,39.87l.26,6.57,21.08,39.15s9.39,15.75,3.55,22.86c-3.81,13.21-17.52,23.88-29.71,21.08.76,2.29,2,10.16,2,10.16s6.86,19.31-7.62,40.13c-5.34,31-11.69,34-16.26,57.15s-28.19,31.24-49,23.37-19.05-.76-19.05-.76l.76,33s-17.77,53.59-83.81,113c-20.07,18-43.18,35-43.18,35s-137.09-53.2-159.68-173C391.87,760.9,387.93,736.21,395.6,732Z"/><path class="cls-3" d="M395.6,732s3.76-8.07-1.19,11.92c-.05,2.54,0,5.46.2,8.71,2.09,32.18,20.53,97.3,123.47,161.36,14.13,10.41,28.26,15.93,41.64,13.75,5.35-2,11.08,6.52,14.56,10.42,6.76,7.56,4.54,14.76-28.78,10.26-24.92-3.38-48.15-7.59-48.15-7.59S335,799.56,388.85,738.3A50.79,50.79,0,0,1,395.6,732Z"/><path class="cls-4" d="M969.65,865c-98.49,130-254.53,213.91-430.18,213.91-171.41,0-324.16-80-423-204.59,14.21-17.57,30.49-32,49-41,97.18-46.89,195.22-89.51,210.56-97.18,13.52-6.76,30.49-17.16,40.76-19.75-.29.32-.59.64-.89,1l-.9.92c-.3.3-.6.6-.91.89l-.92.87-.91.82-.91.8q-1.4,1.17-2.76,2.22l-.9.68c-.6.45-1.18.87-1.76,1.28l-.86.59-.84.56-.81.53-.79.5-.76.47-.07,0-1.19.71-.84.48-.62.35c-.88.49-1.63.88-2.22,1.18h0c-.87.43-1.36.65-1.36.65a5.48,5.48,0,0,0-1.43,1.17c-5.71,6.4-2.3,27.78-2.3,27.78,22.59,119.77,159.68,173,159.68,173s3.17-2.33,8.17-6.18h0c8.52-6.56,22.36-17.51,35-28.87a383.52,383.52,0,0,0,45.71-48.68l.24-.31c.06-.09.13-.17.19-.25.25-.3.48-.6.71-.9a2.92,2.92,0,0,0,.21-.28l.3-.39,1-1.25a.35.35,0,0,0,.05-.08c.11-.14.22-.27.32-.41a1.84,1.84,0,0,0,.17-.22c.27-.36.54-.71.8-1.07l1.26-1.69q3.76-5,7-9.77c2.18-3.15,4.18-6.2,6-9.11l.91-1.44c.31-.48.6-1,.89-1.43l1.7-2.78q1.25-2.06,2.37-4l1.46-2.56c.93-1.63,1.79-3.2,2.6-4.71a.31.31,0,0,1,0-.1c.41-.77.81-1.52,1.19-2.25q.87-1.65,1.62-3.18c.68-1.36,1.31-2.64,1.88-3.84.43-.9.83-1.76,1.2-2.57l.36-.8c.24-.52.46-1,.67-1.5l.3-.7c.36-.82.67-1.56.95-2.23s.41-1,.59-1.46.26-.66.37-.94l.2-.54.11-.3a3.21,3.21,0,0,0,.12-.31c.14-.37.23-.64.29-.8a.55.55,0,0,1,0-.12v0l-.49-21.42-.27-11.6s-1.09-4.37,8.48-2.46l1.39.3c1.22.29,2.59.67,4.14,1.16l1.16.38,1.23.42,1.29.46c.44.16.9.32,1.36.5a45.72,45.72,0,0,0,8.82,2.36,38.59,38.59,0,0,0,23.77-3.42l.06,0,26.17,9.4L911.89,818s3.13,1.26,8.12,3.9l1.53.83a153.25,153.25,0,0,1,15.17,9.5A135.11,135.11,0,0,1,969.65,865Z"/><path d="M771.2,640.84a1.37,1.37,0,0,0,0-.19,54.51,54.51,0,0,0-1.43-7.69.31.31,0,0,0,0-.07l-7-4.55c-6.4,6.82-15.13.42-15.13.42l-53.29,16-36,37.72L648.9,656.9C601.81,634.45,568.07,603,550,583.35c-5.21-5.64-9.12-10.3-11.69-13.5-2.42-3-3.65-4.7-3.65-4.7l-24.67-3.73s-9.59,7.24-12.36,61.16q-.36,7-.17,13.55h0c.08,2.73.22,5.37.42,8a149.59,149.59,0,0,0,3.59,23.34,130.71,130.71,0,0,0,8.09,24,80.45,80.45,0,0,0,8.32,14.74s10.66,1.92,53.78,14.49c61.41,20.83,75.86,43,106.47,66.45h0c.65.52,1.31,1,2,1.51,2.94,2.2,6,4.41,9.32,6.63q4.75.74,9.06,1c44.52,3,54.8-27.52,56.8-32.12a6.13,6.13,0,0,0,.4-2.2c.15-6.24-5.09-18.93-3.6-30,1.26-9.26,11-49.39,16-69.95a0,0,0,0,0,0,0c1.69-6.86,2.85-11.55,3-12.16v0a.18.18,0,0,0,0,0A31.38,31.38,0,0,0,771.2,640.84ZM672,682.13s1.33-1.89,17.66-14.23,55.42-18,57.32-17.37,8,4.84,9.68,2.38,8.16-4.75,8.16-4.75c1.41-.55,1.33,3.42,1.14,6.26s-9.49,38.91-17.09,54.1S743,700,743,700l-13.48.19c-1.7,16.7-11.76,21.06-35.11,15S672,682.13,672,682.13Z"/><path class="cls-5" d="M798.15,448.23c-4.06-44.45-27.94-88.13-33.78-94.23s-7.37-13.21-18.29-16-3.3-1.52-15.75-11.18-55.11-46-59.94-48.51S636.86,260.53,620.86,256s-67.56-9.4-99.82-7.62-79.5,28.7-89.4,33.78-79.76,48-96,88.39-24.89,61.72-29.72,72.9S295,487.6,300.58,517.32,326,553.39,325,555.16s0,9.15,0,9.15,3.81,8.12,9.91,29,42.67,22.61,42.67,22.61,2,1.77,1.78,11.93,12.44,16.26,25.4,18.55,3.55,5.58-1.78,19.55c-7.37,39.12,33,34.29,33,34.29,22.6-5.08,54.86-32.51,94-113.79,14.67-30.46,32.65-60,50.71-86.52q3.32-4.86,6.62-9.56c27.87-39.72,55-71.45,69.42-87,24.89-26.93,60.39-47.2,63.75-46.74,22.94,3.15,40.29,52.58,44.88,65,3.8,7.23,7.88,13.16,12.7,16.4,1.34,2.33,2.74,4.63,4.2,6.88,4.18,8.53,6.61,16.4,2.56,35.65C783.38,488.7,773.28,501.25,771,525c.43,33.77,10.14,5.19,11.76-4.17S801,479.34,798.15,448.23Z"/><path d="M607.6,499.45c.15-1.84,1-10.7,1-10.7l-21.27-.46c-2.21,3.15-4.42,6.32-6.63,9.56C588,498.28,597.8,498.85,607.6,499.45Z"/><path d="M828.66,479.65c-6.73-3-18.9-4.15-32.29-3.71-2.19.07-4.41.18-6.65.35h0c-1.4.09-2.79.21-4.2.34l-.37,0H785l-.35,0c-17.66,1.73-24.59,11.6-31.51,13.85s-4.85,1.21-9,0-19.4-10.74-43.29-11.26-47.8,10.39-47.8,10.39l-45.79-1-6.75-.14h0c0,.1-.19,1.08-1.8,10.33l1.67.1,1.71.11,1.83.11,3.67.22c18.68,1.14,37.48,2.38,39.92,2.89,5,1,4.67,6.23,4.67,6.23s-3.29,38.27-1.56,46.93,4.68,22.69,32.39,22.86,34.29-12.29,37.58-15.58c5.66-5.95,20.78-37.41,24.76-49s9.53-2.43,9.53-2.43a102,102,0,0,1,7.75,11.56c-1-4.55-1.9-10.55-1.17-15.71,1.1-7.9,4-19.79,22.12-25.2h0l0,0q.42-.14.84-.24c1.24-.35,2.55-.67,3.93-1a71.19,71.19,0,0,1,7.18-1.1c1.49-.16,3-.29,4.66-.38A35.24,35.24,0,0,1,815,480.86c4.85,1.73,8.66,4.16,8.31,11.26A130.12,130.12,0,0,1,819,521.73c-3.46,13-6.7,25-14.37,34.64-4.33,6.06-7.62,6.92-10.91,8.14A31.54,31.54,0,0,1,787,566l-.25,0,1.56,2.77.17,0c11.31-2.76,16.32-6.1,24.59-21.44s14.72-54,15.07-55.47a4.47,4.47,0,0,1,2.08-2.37v-8.14Zm-90.74,37.58c-3.47,11.08-10.2,28.23-15,35.15s-8.07,18.36-30.58,22c-10.74,2.25-18,0-18,0s-14.89-2.25-15.76-17.84.69-35.67,3.64-45.54,7.1-20.27,20.09-23.21,20.26-3.06,22.86-3.12c0,0,11.42-.52,19.22,1.39s13.68,5.89,15.24,9.7S741.38,506.15,737.92,517.23Z"/><path class="cls-6" d="M402.1,671.32s-1.32-7.49,8.13-20.72c2.07-3.71.77-4.85-5.49-6.28a102.19,102.19,0,0,1-10.48-2.8c-.8-.31-12.22-14.22-2.32-23.15S422,628.85,420.84,636,408.38,664.33,402.1,671.32Z"/><path class="cls-6" d="M377.56,613.84s2-58.89,8.36-81.39-14,5.62-15.32,12.61-7.56,30.06-5.82,40.34,2.91,14,.78,13.19-19-14.16-14.74-43.45c.58-1.74-.39-25.77,1-29.86s3.88-28.81,11.44-37.49-4.46-6.55-7.37-1.89S333.75,535,337.63,562.71c-.52,17.26.71,19-.52,20.94a12.81,12.81,0,0,1-3.48,3.36s2.75,14.27,17.15,20.39S374.25,613.58,377.56,613.84Z"/><path class="cls-6" d="M324.41,552.18s-13-9.25-14.25-13.52.74-42.09,7.12-59.74,20.74-60.13,30.63-71.19,6,0,4.26,3.88-18,54.89-20.06,84S323.83,542.07,324.41,552.18Z"/><path class="cls-6" d="M793.4,440.36c-.43-25.78-22.59-65.21-24.09-69.47s-13.21-20.25-23.87-23.45c-8.51-2.55-23.17.59-28.73,2l-1.29.33c-.61.15-.95.25-.95.25h0c-17.16,5-42.82,24.16-42.82,24.16L635.31,415l-43.42,57.15-30.16,46.22-27.12,46.78L508.29,616.4s-3.9,8.14-11.1,20.1c-.25.31-18.51,24-40.74,28.71s-43.9,14.49-43.69,19.6c0,10,8.68,13.19,14.36,13.31,0,0-.63,2.24-.62,2.22s30.16,8.5,58.14-15.47,51-70,55.94-83.12,60.58-108.93,79.12-129.6c3.68-6.53,56.59-56.94,58.34-59,22.22-22.86,39-34.05,55.31-32,8.63,1.1,17.09,11.78,23.14,21.59,2.93,5.47,5.66,10.68,8.2,15.29.42.91.65,1.44.65,1.44l0-.17c4.05,7.26,7.62,12.82,10.8,15.15,19.7,21.38,7.12,49.9,3,58.25,0,0,6.34-5.26,7.83-8.24S793.82,466.15,793.4,440.36Z"/><path class="cls-3" d="M509.93,695.06s-2.27,18.91,51.82,31.39,55.6,27.61,60.14,31,4.53,21.23,0,39-4.92,44.61-22.32,64.65c-1.89,8.33,36.36-5.06,40.87-11s43.47-54.86,43.47-76.79-172.09-94.42-172.09-94.42S506.91,670.85,509.93,695.06Z"/><path class="cls-7" d="M519.32,873s39.57,33.25,61.34,0,5.16,16.63-21.7,24.3S524.44,890.9,519.32,873Z"/><path class="cls-8" d="M491.57,722.11s.43,75.45,5.78,94.63c0,0-1.89,0-3.89-2.37s-17.56-79.21-13.17-85.79S487.69,717.44,491.57,722.11Z"/><path class="cls-9" d="M653.59,880.57c-9,9.06,49.87-19.08,46-7.57s25.58-4.66,47.32,26.44,47.31,114.22,90.79,63.07,88.37-109.46,93.34-120.1a70.55,70.55,0,0,1,5.64-10.16A135.22,135.22,0,0,0,911.89,818L729.42,752.48c-9.42,4.86-21.4,5.29-32.59,1.06-6-2.28-10.1-3.28-12.94-3.58a25.9,25.9,0,0,0-6,5.56l.69,30.28s-9,27.2-38.1,64.33h0S662.54,871.5,653.59,880.57Z"/><path class="cls-7" d="M707.3,915.2c-9.11,1-22,15.64-38.37,18.67-48.73,15.42-60,34.32-78.23,38.87-21,5.27,1.43,20.12,17.86,20.19a14.6,14.6,0,0,0,8.75-2.9c14.17-10.5,32.36-28.78,53.72-41.27,19.56-11.44,31.3-22.79,41.13-31.53a2.74,2.74,0,0,1,.57-.51c2.2-1,2.46-1.42,1.74-1.52Z"/><path class="cls-10" d="M365,763.46s.26,130.43,183.42,197.78"/><path class="cls-10" d="M699.38,793.83s-27.22,76.63-131.26,160.23"/><path class="cls-11" d="M714.83,608.94s3.33,10.44,18.68,4.9,18.54-4.77,28.13-1.64,9.81,7,9.81,7c0,.31-.91.48-1.6,0-5.72-4.12-26.49-.22-30-3.11C731.27,612.76,715.87,622.1,714.83,608.94Z"/></g></g></svg>