<svg xmlns="http://www.w3.org/2000/svg" viewBox="0 0 776 312.74"><defs><style>.cls-1{fill:#727272;}.cls-2{fill:#d33939;}.cls-3{opacity:0.05;}.cls-4{fill:#86dcea;}.cls-5{fill:none;stroke:#000;stroke-miterlimit:10;stroke-width:2px;opacity:0.2;}.cls-6{fill:#e09448;}.cls-7{fill:#555;}.cls-8{fill:#e2a347;}.cls-9{fill:#ffd364;}.cls-10{fill:#ffe09c;}.cls-11{fill:#d3f1f4;}.cls-12{fill:#fff;opacity:0.6;}.cls-13{opacity:0.1;}</style></defs><title>Asset 1</title><g id="Layer_2" data-name="Layer 2"><g id="Layer_2-2" data-name="Layer 2"><path class="cls-1" d="M313.07,181.74a154.57,154.57,0,0,0-6.6,21.11c-3.82,5.89,5.18,11.84,13.93,19,.54.44,1.09.89,1.62,1.34l3.55,3,1.59,1.36c8.54,7.4,16,15.23,21.1,10.46a155.27,155.27,0,0,0,19.8-10.23h0"/><polygon class="cls-2" points="414.89 196.06 366.31 228.77 312.03 184.57 338.01 127.06 418.46 193.08 414.89 196.06"/><path class="cls-2" d="M336.38,130.19c15.39-29.8,34.66-61,53.25-80.93C426.82,9.34,509.09,0,509.09,0a3.91,3.91,0,0,1,2.44.47,3.25,3.25,0,0,1,.28.19l.1.08.1.09a2.54,2.54,0,0,1,.23.24,3.9,3.9,0,0,1,.89,2.32s5,82.64-27.91,126.16c-16.45,21.77-43.88,46.14-70.59,66.43"/><path class="cls-3" d="M490.69,121.43s-77.76,83-168.38,56.21L311.4,184,366,229.86S473.75,158.62,490.69,121.43Z"/><path class="cls-3" d="M493.89,115s-79.67,100.58-172.46,77.24L366,229.86S469.51,167,493.89,115Z"/><path class="cls-2" d="M336.39,130.19S298.56,113.45,270,160.7c-28.67,47.4,12.2,15.18,16.3,13.69,8.78-4.7,23-4.4,26.8,7.35S353.37,135.49,336.39,130.19Z"/><path class="cls-2" d="M414.53,195.85s23,34.38-18.61,70.68-17.06-9.4-16.29-13.69c3.12-9.47.36-23.45-11.86-25.14S406.38,180,414.53,195.85Z"/><circle class="cls-4" cx="432.96" cy="94.01" r="24.98"/><path class="cls-2" d="M375.93,163.32a4.45,4.45,0,0,0-.71-.59s-5.66-4.76-15.55,7-41.73,54-43.4,58.85c-1.16,3.39-.23,4.28.44,4.51.34.62,1.38,1.39,4.52-.34,4.5-2.49,40.6-41.14,50.49-52.9S375.93,163.32,375.93,163.32Z"/><path class="cls-5" d="M375.93,163.32a4.45,4.45,0,0,0-.71-.59s-5.66-4.76-15.55,7-41.73,54-43.4,58.85c-1.16,3.39-.23,4.28.44,4.51.34.62,1.38,1.39,4.52-.34,4.5-2.49,40.6-41.14,50.49-52.9S375.93,163.32,375.93,163.32Z"/><path class="cls-6" d="M317.16,278.71a29.11,29.11,0,0,0-3-40.56h0l-.27-.22-.26-.23h0a29.12,29.12,0,0,0-40.48,4s-.34.39-.93,1.17c-4.16,5.37-20.78,29-22,64.33,0,.11,0,.22,0,.32h0a5.51,5.51,0,0,0,1.46,3.9l0,0c.09.08.19.14.28.21l.25.24,0,0a5.51,5.51,0,0,0,4.09.76h0l.31-.07c34.6-7.27,55-27.72,59.59-32.74C316.83,279.11,317.16,278.71,317.16,278.71Z"/><path class="cls-7" d="M452.36,71.64a29.15,29.15,0,1,0,3.57,41.07A29.14,29.14,0,0,0,452.36,71.64ZM419,111.31A22.67,22.67,0,1,1,451,108.54,22.66,22.66,0,0,1,419,111.31Z"/><path class="cls-8" d="M316.35,271.83a24.7,24.7,0,0,0-2.58-34.43h0l-.23-.18-.22-.2v0A24.7,24.7,0,0,0,279,240.42s-.29.33-.79,1C274.64,246,260.53,266,259.51,296a2.26,2.26,0,0,0,0,.26h0a4.68,4.68,0,0,0,1.24,3.3l0,0a2,2,0,0,0,.23.18,2.09,2.09,0,0,0,.22.2l0,0a4.66,4.66,0,0,0,3.47.65h0l.26-.06c29.37-6.17,46.7-23.53,50.58-27.79C316.07,272.17,316.35,271.83,316.35,271.83Z"/><path class="cls-9" d="M315.55,261.85a17.57,17.57,0,0,0-1.84-24.5h0l-.17-.13-.15-.14h0a17.59,17.59,0,0,0-24.46,2.41s-.21.24-.57.71a69.51,69.51,0,0,0-13.28,38.88,1.28,1.28,0,0,1,0,.19h0a3.26,3.26,0,0,0,.88,2.35l0,0,.17.13.15.14,0,0a3.35,3.35,0,0,0,2.47.47h0l.19,0a69.4,69.4,0,0,0,36-19.79C315.35,262.1,315.55,261.85,315.55,261.85Z"/><path class="cls-10" d="M313.75,251.76a9.63,9.63,0,0,0-1-13.42h0l-.09-.07-.08-.08h0a9.61,9.61,0,0,0-13.39,1.32l-.31.38a38,38,0,0,0-7.28,21.3v.1h0a1.8,1.8,0,0,0,.49,1.29h0l.09.07.08.08h0a1.85,1.85,0,0,0,1.35.25h0l.1,0a38.11,38.11,0,0,0,19.72-10.83A4.56,4.56,0,0,0,313.75,251.76Z"/><ellipse class="cls-11" cx="433.56" cy="78.2" rx="3.24" ry="6.01" transform="translate(337.34 508.12) rotate(-87.61)"/><ellipse class="cls-12" cx="405.32" cy="199.39" rx="5.98" ry="2.44" transform="translate(-46.3 208.26) rotate(-27.32)"/><ellipse class="cls-12" cx="325.38" cy="133.43" rx="2.44" ry="5.98" transform="translate(178.49 452.96) rotate(-87.61)"/><ellipse class="cls-12" cx="433.5" cy="85.3" rx="0.88" ry="2.15" transform="translate(330.19 514.86) rotate(-87.61)"/><ellipse class="cls-12" cx="370.38" cy="167.37" rx="3.81" ry="2.37" transform="translate(-35.51 188.65) rotate(-27.32)"/><ellipse class="cls-12" cx="465.65" cy="19.17" rx="14.11" ry="3.41" transform="translate(13.79 133.28) rotate(-16.53)"/><ellipse class="cls-12" cx="445.13" cy="25.35" rx="2.94" ry="1.61" transform="translate(11.18 127.7) rotate(-16.53)"/><path class="cls-3" d="M378.42,209.49s34.28,11.85-4.31,71.61c0,0-6.15-4.54-.58-12.7s16.75-27-.9-39.17l-8.75-2.44S376.83,208.73,378.42,209.49Z"/><path class="cls-3" d="M329.82,168.66S312.25,136.93,260,185.24c0,0,5.53,5.28,12.61-1.61s23.67-21.15,38.74-5.86l3.91,8.2S330.85,170.1,329.82,168.66Z"/><path class="cls-13" d="M410,106.21s35,14.93,49.27-18.36C459.24,87.85,453.34,140.66,410,106.21Z"/><polygon points="165 45.74 0 144.74 0 169.74 165 267.74 165 241.74 22 156.74 165 71.74 165 45.74"/><polygon points="611 47.74 776 146.74 776 171.74 611 269.74 611 243.74 754 158.74 611 73.74 611 47.74"/></g></g></svg>